<svg width="249" height="236" viewBox="0 0 249 236" fill="none" xmlns="http://www.w3.org/2000/svg">
<g filter="url(#filter0_d_4_6)">
<path d="M126.92 164.657C126.92 164.657 130.208 167.714 129.6 169.437C128.205 173.401 121.96 175.243 117.904 174.147C111.43 172.397 105.51 164.959 105.568 158.253C105.653 148.411 115.718 140.445 124.072 135.243C132.672 129.888 143.598 128.433 153.726 128.6C164.753 128.784 176.521 130.87 185.753 136.903C190.891 140.261 195.133 145.573 197.14 151.373C198.278 154.661 197.14 161.811 197.14 161.811C197.14 161.811 206.2 149.303 209.476 142.358C213.38 134.08 219.113 125.348 218.016 116.262C217.514 112.102 214.763 108.062 211.373 105.586C200.501 97.678 185.668 96.306 172.231 95.86C158.341 95.4 144.216 98.36 131.191 103.214C122.318 106.514 113.631 111.179 106.756 117.684C99.013 125.01 91.592 133.924 88.964 144.254C87.26 150.949 87.624 158.791 90.862 164.894C93.786 170.404 99.546 174.43 105.332 176.756C110.999 179.034 117.787 180.056 123.599 178.179C127.444 176.939 132.724 174.389 132.851 170.349C133.038 164.402 126.921 164.655 126.921 164.655L126.92 164.657Z" fill="white"/>
<path d="M123.7 168.157C123.7 168.157 122.842 165.512 123.575 164.563C124.765 163.026 127.445 162.609 129.275 163.291C131.917 164.291 134.282 167.291 134.287 170.111C134.293 173.733 131.111 177.248 127.882 178.889C120.832 182.472 111.64 181.452 104.159 178.889C97.814 176.716 91.599 172.371 88.265 166.553C83.425 158.113 82.295 147.093 84.469 137.611C86.689 127.927 93.901 119.815 100.839 112.701C108.297 105.053 117.322 98.571 127.172 94.434C138.455 89.697 151.027 88.431 163.232 87.554C173.732 86.8 184.442 87.018 194.785 88.977C201.272 90.207 207.835 92.035 213.525 95.382C215.763 96.699 219.308 100.602 219.308 100.602C219.308 100.602 217.752 80.632 214.712 71.185C212.079 63.005 209.284 54.128 203.088 48.175C198.701 43.959 192.431 41.873 186.482 40.6C175.182 38.184 163.208 38.765 151.847 40.82C138.575 43.22 125.75 48.39 113.859 54.757C102.729 60.717 92.246 68.222 83.285 77.117C75.945 84.404 69.023 92.593 64.781 102.027C60.507 111.532 58.306 122.207 58.376 132.629C58.432 140.974 60.158 149.571 63.832 157.064C67.269 164.074 72.777 170.101 78.778 175.094C84 179.438 90.144 182.828 96.57 185.028C102.624 187.1 109.16 188.268 115.55 187.904C123.025 187.479 131.532 186.894 137.232 182.041C140.562 179.205 142.969 174.441 142.63 170.081C142.392 167.026 140.203 164.001 137.598 162.387C134.753 160.623 130.858 159.537 127.624 160.405C124.624 161.209 122.108 162.818 121.729 165.325C121.549 166.515 123.713 168.158 123.713 168.158L123.7 168.157Z" fill="white"/>
<path d="M124.7 170.277C124.7 170.277 120.1 169.347 118.902 167.627C117.182 165.14 117.302 161.633 118.99 159.127C121.77 155.001 127.723 153.42 132.694 153.227C141.099 152.882 151.369 154.707 156.609 161.287C160.982 166.78 161.866 175.984 158.691 182.247C155.505 188.532 147.237 190.973 140.487 192.995C129.921 196.16 118.331 196.325 107.435 194.607C96.179 192.832 85.185 188.454 75.459 182.507C64.743 175.963 54.916 167.392 47.514 157.249C39.574 146.369 33.646 133.614 30.854 120.449C28.329 108.532 28.681 95.849 31.124 83.906C33.9168 70.3704 39.2999 57.5023 46.977 46.01C52.834 37.28 60.711 29.81 69.279 23.708C76.983 18.228 85.849 14.368 94.806 11.348C102.079 8.895 109.711 7.185 117.376 6.78C126.899 6.277 136.549 7.4 145.858 9.467C153.658 11.199 161.358 13.792 168.428 17.527C176.758 21.934 191.268 34.187 191.268 34.187C191.268 34.187 161.846 31.375 147.468 33.917C130.528 36.914 113.803 42.985 99.103 51.92C88.157 58.573 78.503 67.62 70.621 77.715C64.308 85.8 59.285 95.099 56.121 104.855C52.903 114.755 51.203 125.375 51.821 135.755C52.241 142.781 54.081 149.863 57.195 156.175C60.301 162.475 64.818 168.198 70.093 172.835C76.9468 178.843 84.8798 183.493 93.47 186.539C100.388 188.975 107.9 189.855 115.235 189.763C121.507 189.683 128.191 189.395 133.775 186.539C138.455 184.145 143.461 180.539 145.06 175.522C146.362 171.447 145.573 166.129 142.774 162.892C140.012 159.698 134.988 158.862 130.766 158.862C127.666 158.861 124.194 159.679 121.951 161.818C120.699 163.012 120.054 164.545 120.511 166.213C121.031 168.105 124.705 170.283 124.705 170.283L124.708 170.28L124.7 170.277Z" fill="white"/>
</g>
<defs>
<filter id="filter0_d_4_6" x="-4" y="0" width="256.43" height="254.93" filterUnits="userSpaceOnUse" color-interpolation-filters="sRGB">
<feFlood flood-opacity="0" result="BackgroundImageFix"/>
<feColorMatrix in="SourceAlpha" type="matrix" values="0 0 0 0 0 0 0 0 0 0 0 0 0 0 0 0 0 0 127 0" result="hardAlpha"/>
<feOffset dy="4"/>
<feGaussianBlur stdDeviation="2"/>
<feComposite in2="hardAlpha" operator="out"/>
<feColorMatrix type="matrix" values="0 0 0 0 0 0 0 0 0 0 0 0 0 0 0 0 0 0 0.25 0"/>
<feBlend mode="normal" in2="BackgroundImageFix" result="effect1_dropShadow_4_6"/>
<feBlend mode="normal" in="SourceGraphic" in2="effect1_dropShadow_4_6" result="shape"/>
</filter>
</defs>
</svg>
